<?xml version="1.0" encoding="UTF-8"?>
<!DOCTYPE svg PUBLIC "-//W3C//DTD SVG 1.1//EN" "http://www.w3.org/Graphics/SVG/1.1/DTD/svg11.dtd">
<!-- Creator: CorelDRAW -->
<svg xmlns="http://www.w3.org/2000/svg" xml:space="preserve" width="2048px" height="2048px" style="shape-rendering:geometricPrecision; text-rendering:geometricPrecision; image-rendering:optimizeQuality; fill-rule:evenodd; clip-rule:evenodd"
viewBox="0 0 2048 2048"
 xmlns:xlink="http://www.w3.org/1999/xlink">
 <defs>
  <style type="text/css">
   <![CDATA[
    .fil0 {fill:none}
    .fil4 {fill:#6A6A6A;fill-rule:nonzero}
    .fil2 {fill:#8B8C8C;fill-rule:nonzero}
    .fil1 {fill:#8E8E8F;fill-rule:nonzero}
    .fil3 {fill:#BBBBBC;fill-rule:nonzero}
   ]]>
  </style>
 </defs>
 <g id="Layer_x0020_1">
  <metadata id="CorelCorpID_0Corel-Layer"/>
  <rect class="fil0" x="255.999" y="255.999" width="1536" height="1536"/>
  <path class="fil1" d="M1448.93 308.766c52.4599,31.174 80.7497,82.4634 94.2497,140.217 17.5795,75.1985 9.60591,161.4 -1.44095,224.542 -14.9091,85.2095 -41.7059,172.499 -75.6461,257.568 -38.7166,97.0383 -86.4934,190.602 -136.351,274.504 -49.8957,83.9658 -109.262,170.7 -175.984,251.095 -58.4445,70.4186 -122.307,135.672 -190.1,189.565 -26.524,21.0862 -55.617,41.9563 -86.3457,60.1737 -31.291,18.5504 -64.3205,34.3666 -98.1757,44.9492 -30.6071,9.56694 -63.1902,14.9799 -95.4828,13.0665 -29.224,-1.7315 -57.9709,-9.3945 -84.5906,-25.213 -52.4599,-31.174 -80.7497,-82.4634 -94.2497,-140.217 -17.5795,-75.1985 -9.60591,-161.4 1.44095,-224.542 14.9091,-85.2095 41.7059,-172.499 75.6461,-257.568 38.7166,-97.0383 86.4934,-190.602 136.351,-274.504 49.8957,-83.9658 109.262,-170.7 175.984,-251.095 58.4445,-70.4186 122.307,-135.672 190.1,-189.565 26.524,-21.0862 55.617,-41.9563 86.3457,-60.1737 31.291,-18.5504 64.3205,-34.3666 98.1757,-44.9492 30.6071,-9.56694 63.1902,-14.9799 95.4828,-13.0665 29.224,1.7315 57.9709,9.3945 84.5906,25.213zm31.9984 154.716c-9.84213,-42.1028 -29.3492,-78.8292 -64.4977,-99.717 -17.3315,-10.2992 -36.3366,-15.3047 -55.8426,-16.461 -23.902,-1.41614 -48.8268,2.84173 -72.7323,10.3146 -28.7362,8.98229 -57.2918,22.715 -84.6757,38.9492 -27.9461,16.5685 -54.6343,35.7296 -79.0938,55.1752 -64.5449,51.3107 -125.295,113.375 -180.852,180.314 -63.9886,77.1012 -121.394,161.075 -169.984,242.844 -48.6284,81.8339 -94.969,172.441 -132.099,265.504 -32.2063,80.7237 -57.6685,163.749 -71.8973,245.069 -9.97914,57.039 -17.3492,134.197 -2.18977,199.042 9.84213,42.1028 29.3492,78.8292 64.4977,99.717 17.3315,10.2992 36.3366,15.3047 55.8426,16.461 23.902,1.41614 48.8268,-2.84173 72.7323,-10.3146 28.7362,-8.98229 57.2918,-22.715 84.6757,-38.9492 27.9461,-16.5685 54.6343,-35.7296 79.0938,-55.1752 64.5449,-51.3107 125.295,-113.375 180.852,-180.314 63.9886,-77.1012 121.394,-161.075 169.984,-242.844 48.6284,-81.8339 94.969,-172.441 132.099,-265.504 32.2063,-80.7237 57.6685,-163.749 71.8973,-245.069 9.97914,-57.039 17.3492,-134.197 2.18977,-199.042z"/>
  <path class="fil2" d="M599.066 308.766c-52.4599,31.174 -80.7497,82.4634 -94.2497,140.217 -17.5795,75.1985 -9.60591,161.4 1.44095,224.542 14.9091,85.2095 41.7059,172.499 75.6461,257.568 38.7166,97.0383 86.4934,190.602 136.351,274.504 49.8957,83.9658 109.262,170.7 175.984,251.095 58.4445,70.4186 122.307,135.672 190.1,189.565 26.524,21.0862 55.617,41.9563 86.3457,60.1737 31.291,18.5504 64.3205,34.3666 98.1757,44.9492 30.6071,9.56694 63.1902,14.9799 95.4828,13.0665 29.224,-1.7315 57.9709,-9.3945 84.5906,-25.213 52.4599,-31.174 80.7497,-82.4634 94.2497,-140.217 17.5795,-75.1985 9.60591,-161.4 -1.44095,-224.542 -14.9091,-85.2095 -41.7059,-172.499 -75.6461,-257.568 -38.7166,-97.0383 -86.4934,-190.602 -136.351,-274.504 -49.8957,-83.9658 -109.262,-170.7 -175.984,-251.095 -58.4445,-70.4186 -122.307,-135.672 -190.1,-189.565 -26.524,-21.0862 -55.617,-41.9563 -86.3457,-60.1737 -31.291,-18.5504 -64.3205,-34.3666 -98.1757,-44.9492 -30.6071,-9.56694 -63.1902,-14.9799 -95.4828,-13.0665 -29.224,1.7315 -57.9709,9.3945 -84.5906,25.213zm-31.9984 154.716c9.84213,-42.1028 29.3492,-78.8292 64.4977,-99.717 17.3315,-10.2992 36.3366,-15.3047 55.8426,-16.461 23.902,-1.41614 48.8268,2.84173 72.7323,10.3146 28.7362,8.98229 57.2918,22.715 84.6757,38.9492 27.9461,16.5685 54.6343,35.7296 79.0938,55.1752 64.5449,51.3107 125.295,113.375 180.852,180.314 63.9886,77.1012 121.394,161.075 169.984,242.844 48.6284,81.8339 94.969,172.441 132.099,265.504 32.2063,80.7237 57.6685,163.749 71.8973,245.069 9.97914,57.039 17.3492,134.197 2.18977,199.042 -9.84213,42.1028 -29.3492,78.8292 -64.4977,99.717 -17.3315,10.2992 -36.3366,15.3047 -55.8426,16.461 -23.902,1.41614 -48.8268,-2.84173 -72.7323,-10.3146 -28.7362,-8.98229 -57.2918,-22.715 -84.6757,-38.9492 -27.9461,-16.5685 -54.6343,-35.7296 -79.0938,-55.1752 -64.5449,-51.3107 -125.295,-113.375 -180.852,-180.314 -63.9886,-77.1012 -121.394,-161.075 -169.984,-242.844 -48.6284,-81.8339 -94.969,-172.441 -132.099,-265.504 -32.2063,-80.7237 -57.6685,-163.749 -71.8973,-245.069 -9.97914,-57.039 -17.3492,-134.197 -2.18977,-199.042z"/>
  <path class="fil3" d="M192.187 1034.44c-0.766536,-60.9367 28.2284,-111.789 70.4504,-153.424 54.9922,-54.2292 132.726,-92.4048 192.391,-115.925 80.7898,-31.8508 169.181,-54.5433 259.148,-69.906 102.274,-17.465 207.142,-25.4646 305.375,-26.7 98.1568,-1.23425 203.14,4.12441 305.818,19.0099 90.319,13.0937 179.277,33.5634 260.91,63.3957 60.2776,22.0276 138.993,58.252 195.325,111.072 43.2071,40.5154 73.441,90.6107 74.2075,151.598 0.766536,60.9367 -28.2284,111.789 -70.4504,153.424 -54.9922,54.2292 -132.726,92.4048 -192.391,115.925 -80.7898,31.8508 -169.181,54.5433 -259.148,69.906 -102.274,17.465 -207.142,25.4646 -305.375,26.7 -98.1568,1.23425 -203.14,-4.12441 -305.818,-19.0099 -90.319,-13.0937 -179.277,-33.5634 -260.91,-63.3957 -60.2776,-22.0276 -138.993,-58.252 -195.325,-111.072 -43.2071,-40.5154 -73.441,-90.6107 -74.2075,-151.598zm115.2 -107.923c-30.7984,30.3697 -51.9638,66.2056 -51.4489,107.172 0.514961,40.9134 22.6087,76.219 54.2067,105.849 48.5811,45.554 119.009,77.7225 173.326,97.5721 77.1568,28.1965 161.824,47.6292 248.159,60.1453 99.8765,14.4803 201.449,19.6996 296.067,18.5091 94.5414,-1.18937 195.9,-8.96221 295.376,-25.9488 85.9867,-14.6835 170.16,-36.2504 246.647,-66.4052 53.8418,-21.2256 123.48,-55.1705 170.893,-101.927 30.7984,-30.3697 51.9638,-66.2056 51.4489,-107.172 -0.514961,-40.9134 -22.6087,-76.219 -54.2067,-105.849 -48.5811,-45.554 -119.009,-77.7225 -173.326,-97.5721 -77.1568,-28.1965 -161.824,-47.6292 -248.159,-60.1453 -99.8765,-14.4803 -201.449,-19.6996 -296.067,-18.5091 -94.5414,1.18937 -195.9,8.96221 -295.376,25.9488 -85.9867,14.6835 -170.16,36.2504 -246.647,66.4052 -53.8418,21.2256 -123.48,55.1705 -170.893,101.927z"/>
  <path class="fil4" d="M1024 912c30.9236,0 58.9241,12.5374 79.1942,32.8063 20.2689,20.2701 32.8063,48.2705 32.8063,79.1942 0,30.9236 -12.5374,58.9241 -32.8063,79.1942 -20.2701,20.2689 -48.2705,32.8063 -79.1942,32.8063 -30.9236,0 -58.9241,-12.5374 -79.1942,-32.8063 -20.2689,-20.2701 -32.8063,-48.2705 -32.8063,-79.1942 0,-30.9236 12.5374,-58.9241 32.8063,-79.1942 20.2701,-20.2689 48.2705,-32.8063 79.1942,-32.8063zm33.9437 78.0568c-8.68347,-8.68347 -20.6858,-14.0551 -33.9437,-14.0551 -13.2579,0 -25.2603,5.37166 -33.9437,14.0551 -8.68347,8.68347 -14.0551,20.6858 -14.0551,33.9437 0,13.2579 5.37166,25.2603 14.0551,33.9437 8.68347,8.68347 20.6858,14.0551 33.9437,14.0551 13.2579,0 25.2603,-5.37166 33.9437,-14.0551 8.68347,-8.68347 14.0551,-20.6858 14.0551,-33.9437 0,-13.2579 -5.37166,-25.2603 -14.0551,-33.9437z"/>
  <rect class="fil0" width="2048" height="2048"/>
 </g>
</svg>
